<svg version="1" xmlns="http://www.w3.org/2000/svg" width="346.667" height="346.667" viewBox="0 0 260.000000 260.000000"><path d="M40 88.7c-1 .7-5.5 6.3-10.1 12.5-10.7 14.4-9.7 13.5-19.3 18.2l-8.1 4.1-.3 9.2-.3 9.3 8.8 4.2c8.6 4.2 9 4.5 17.1 15.3 12.6 16.5 12.3 16.3 17.3 16.1 4.1-.2 4.6-.5 9.4-6.7 10-12.9 9.1-12.1 13.4-12.1 2.9.1 4.9-.7 7.5-2.7 3-2.4 4.4-2.8 10.3-2.9 3.7 0 6.9-.6 7.1-1.1.2-.6 2.4-1.1 4.8-1.1 4.8 0 4.7.2 4.4-8.2-.2-6.8 1.4-8.8 7.3-8.8 4.3 0 4.9.3 5.8 2.7.6 1.5.9 5 .8 7.8l-.3 5 3.4.3 3.5.3v-18.6l3.1-.3 3.2-.3-.2 6-.2 6.1H141v-3.9c0-3 .5-4.2 2.4-5.5 2.3-1.4 2.6-1.4 4.5.2 1.7 1.4 2.1 3.1 2.3 9.2l.3 7.4h3c3 0 3 0 3.2-6.3.2-7 .8-9.5 2.2-8.7 1.5 1 4-3.9 4.3-8.5l.3-4.4 4.3-.1 4.2-.2v5.2c0 4.9.2 5.2 2.5 5.2 2.2 0 2.5-.4 2.5-3.7 0-3.4.2-3.7 3.4-4.1 5.4-.6 5.6-.3 5.6 8.8 0 7.4.2 8.4 1.8 8.4 2 0 5.8 3.9 5.4 5.7-.1.7.7 1.7 1.8 2.3 1.1.6 2.1.8 2.1.5.1-.3.3-1 .4-1.5.1-.6.3-2.4.4-4 .1-2.9 2.1-4.4 2.1-1.7 0 1 1.8 1.3 6.5 1.3 4.8 0 6.5-.4 6.5-1.4 0-.8.6-1.2 1.3-.9.7.2 1.2 2 1.2 4.3 0 3.5.3 3.9 2.5 3.9s2.5-.4 2.5-3.7c0-2 .3-4 .8-4.4.4-.4.7-2 .7-3.6 0-1.5.4-2.8.9-2.8s.9 1.2.9 2.7c0 1.5.5 2.9 1.1 3.1.6.2 1.1 2.4 1.1 4.8v4.4h4.4c4.1 0 4.6-.3 8.6-5.7 2.4-3.2 4.9-6.5 5.7-7.3.8-.8 3.6-4.3 6.3-7.8 4.3-5.4 5-7 5-10.8V115h-81.4c-67.1 0-81.5-.2-81.9-1.3-.3-.9-2.1-1.3-5.4-1.3-5.2.2-10.5-1.4-12.9-3.9-1.4-1.3-4.3-2-6.8-1.6-2.5.5-5-1.8-11.2-9.9-3.7-5-7-9-7.3-9.1-3.9-.5-7.7-.2-9.1.8zm-7 43.9c0 24.5-.2 27.5-1.5 26.4-1.3-1-1.5-5.2-1.5-25.7 0-21.9.6-28.3 2.5-28.3.3 0 .5 12.4.5 27.6zm28-.2c-.1 18.7-.3 23.5-1.5 25-1.3 1.8-1.5-1-1.5-24.3s.2-26.2 1.5-25.1c1.3 1 1.5 5 1.5 24.4zm10 .6c0 20.4-.5 24.3-2.6 20.9-.5-.9-.9-38.2-.5-42.2.1-.4.8-.7 1.6-.7 1.3 0 1.5 3.1 1.5 22zm-48.4-10.8c.4.7.7 5.7.7 11.1-.1 10.3-.9 12.4-4.2 10.7-.9-.4-3.7-1.8-6.2-3s-4.6-2.7-4.7-3.3c-.4-4.9-.3-9.7.3-10.7.8-1.3 10.2-5.8 12.2-5.9.6-.1 1.5.4 1.9 1.1z"/></svg>